<svg xmlns="http://www.w3.org/2000/svg" version="1.1" xmlns:xlink="http://www.w3.org/1999/xlink" xmlns:svgjs="http://svgjs.dev/svgjs" width="1500" height="1500" viewBox="0 0 1500 1500"><rect width="1500" height="1500" fill="#1d366f"></rect><g transform="matrix(0.6666666666666666,0,0,0.6666666666666666,249.39393939393938,532.6731099636872)"><svg viewBox="0 0 396 172" data-background-color="#1d366f" preserveAspectRatio="xMidYMid meet" height="651" width="1500" xmlns="http://www.w3.org/2000/svg" xmlns:xlink="http://www.w3.org/1999/xlink"><g id="tight-bounds" transform="matrix(1,0,0,1,0.2400000000000091,0.12955088996723418)"><svg viewBox="0 0 395.52 171.74089822006553" height="171.74089822006553" width="395.52"><g><svg viewBox="0 0 462.90383259863245 200.99999999999997" height="171.74089822006553" width="395.52"><g><rect width="5.522619508276798" height="200.99999999999997" x="87.33838613422728" y="0" fill="#484745" opacity="1" stroke-width="0" stroke="transparent" fill-opacity="1" class="rect-yte-0" data-fill-palette-color="primary" rx="1%" id="yte-0" data-palette-color="#484745"></rect></g><g transform="matrix(1,0,0,1,107.31812477411873,0.4999999999999858)"><svg viewBox="0 0 355.58570782451375 200" height="200" width="355.58570782451375"><g id="textblocktransform"><svg viewBox="0 0 355.58570782451375 200" height="200" width="355.58570782451375" id="textblock"><g><svg viewBox="0 0 355.58570782451375 200" height="200" width="355.58570782451375"><g transform="matrix(1,0,0,1,0,0)"><svg width="355.58570782451375" viewBox="0.4500000000000024 -32.45 198.1000000000001 107.55000000000001" height="200" data-palette-color="#484745"><svg></svg><svg></svg><svg></svg><g class="wordmark-text-0" data-fill-palette-color="primary" id="text-0"><path d="M6.25 0.2l0.4-2.15c1.667-0.133 2.817-0.343 3.45-0.63 0.633-0.28 1.05-0.797 1.25-1.55 0.2-0.747 0.3-2.07 0.3-3.97v0-21.8c-2.833 0.1-4.757 0.257-5.77 0.47-1.02 0.22-1.713 0.703-2.08 1.45-0.367 0.753-0.7 2.213-1 4.38v0l-2.35 0.2c0.4-3.167 0.65-6.05 0.75-8.65v0l0.45-0.4 4.15 0.55h15.5l4.25-0.55 0.45 0.4c0.1 2.733 0.35 5.55 0.75 8.45v0l-2.35 0.2c-0.367-2.2-0.733-3.683-1.1-4.45-0.367-0.767-1.017-1.267-1.95-1.5-0.933-0.233-2.733-0.417-5.4-0.55v0c-0.2 2-0.383 5.533-0.55 10.6-0.167 5.067-0.25 9.633-0.25 13.7v0c0 1.233 0.217 2.107 0.65 2.62 0.433 0.52 1.167 0.78 2.2 0.78v0c1 0 1.917-0.05 2.75-0.15v0l0.15 0.2-0.45 2.3-1.65-0.05-5.7-0.1c-1.833 0-4.117 0.067-6.85 0.2zM30 0.45l0.25-2.05c1.233-0.233 2.067-0.577 2.5-1.03 0.433-0.447 0.65-1.22 0.65-2.32v0l0.05-15.9c0-0.833-0.1-1.393-0.3-1.68-0.2-0.28-0.6-0.42-1.2-0.42v0l-1.35 0.05-0.15-0.2 0.3-1.9c0.333 0 0.96 0.017 1.88 0.05 0.913 0.033 1.837 0.05 2.77 0.05v0c0.767 0 1.683-0.05 2.75-0.15 1.067-0.1 1.767-0.167 2.1-0.2v0l-0.2 2.05c-0.8 0.133-1.367 0.29-1.7 0.47-0.333 0.187-0.56 0.47-0.68 0.85-0.113 0.387-0.203 1.047-0.27 1.98v0l-0.25 6.05 6.5 0.05c1.767 0 3.683-0.117 5.75-0.35v0l0.05-6.7c0-0.833-0.1-1.393-0.3-1.68-0.2-0.28-0.6-0.42-1.2-0.42v0l-1.4 0.05-0.1-0.2 0.3-1.9c0.3 0.033 0.883 0.057 1.75 0.07 0.867 0.02 1.717 0.03 2.55 0.03v0c0.8 0 1.777-0.05 2.93-0.15 1.147-0.1 1.903-0.167 2.27-0.2v0l-0.15 2.05c-1.033 0.133-1.717 0.34-2.05 0.62-0.333 0.287-0.517 0.813-0.55 1.58v0c-0.133 2.633-0.257 5.573-0.37 8.82-0.12 3.253-0.18 5.763-0.18 7.53v0c0 1.067 0.117 1.773 0.35 2.12 0.233 0.353 0.7 0.53 1.4 0.53v0c0.4 0 0.767-0.017 1.1-0.05 0.333-0.033 0.55-0.05 0.65-0.05v0l0.15 0.2-0.4 2c-0.367 0-1.057-0.017-2.07-0.05-1.02-0.033-2.08-0.05-3.18-0.05v0l-5 0.05 0.4-2c0.867 0 1.51-0.107 1.93-0.32 0.413-0.22 0.703-0.607 0.87-1.16 0.167-0.547 0.25-1.37 0.25-2.47v0-5.6l-5.75-0.05c-0.533 0-1.617 0.057-3.25 0.17-1.633 0.12-2.733 0.197-3.3 0.23v0l-0.15 6.5c0 1.067 0.117 1.783 0.35 2.15 0.233 0.367 0.7 0.55 1.4 0.55v0c0.4 0 0.767-0.017 1.1-0.05 0.333-0.033 0.55-0.067 0.65-0.1v0l0.1 0.2-0.35 2c-0.267 0-0.777-0.017-1.53-0.05-0.747-0.033-1.537-0.05-2.37-0.05v0c-1.233 0-2.583 0.05-4.05 0.15-1.467 0.1-2.217 0.2-2.25 0.3zM61.95 0.4l0.25-2.1c1.233-0.133 2.067-0.433 2.5-0.9 0.433-0.467 0.65-1.267 0.65-2.4v0l0.05-15.85c0-0.833-0.1-1.393-0.3-1.68-0.2-0.28-0.6-0.42-1.2-0.42v0l-1.35 0.05-0.1-0.2 0.3-1.9c0.4 0 1.183 0.017 2.35 0.05 1.167 0.033 2.433 0.05 3.8 0.05v0c5.567 0 9.683-0.15 12.35-0.45v0l0.15 0.25c-0.067 0.367-0.217 1.2-0.45 2.5-0.233 1.3-0.4 2.7-0.5 4.2v0l-2.4 0.2c0-0.133 0.017-0.36 0.05-0.68 0.033-0.313 0.05-0.637 0.05-0.97v0c0-0.867-0.123-1.477-0.37-1.83-0.253-0.347-0.773-0.58-1.56-0.7-0.78-0.113-2.137-0.17-4.07-0.17v0c-0.9 0-1.517 0.023-1.85 0.07-0.333 0.053-0.55 0.17-0.65 0.35-0.1 0.187-0.167 0.53-0.2 1.03v0l-0.3 7.1 4.1 0.05c0.6 0 1.483-0.06 2.65-0.18 1.167-0.113 1.933-0.187 2.3-0.22v0l0.2 0.25-0.6 2.6c-0.367 0-1.09-0.017-2.17-0.05-1.087-0.033-2.23-0.05-3.43-0.05v0c-0.933 0-1.983 0.083-3.15 0.25v0c-0.1 2.533-0.15 4.817-0.15 6.85v0c0 0.767 0.06 1.3 0.18 1.6 0.113 0.3 0.38 0.5 0.8 0.6 0.413 0.1 1.103 0.15 2.07 0.15v0c2.167 0 3.717-0.1 4.65-0.3 0.933-0.2 1.593-0.61 1.98-1.23 0.38-0.613 0.687-1.67 0.92-3.17v0l2.2-0.2 0.2 0.25c-0.1 0.367-0.273 1.223-0.52 2.57-0.253 1.353-0.447 2.763-0.58 4.23v0l-0.3 0.25c-0.9-0.033-2.767-0.083-5.6-0.15-2.833-0.067-5.133-0.1-6.9-0.1v0c-1.367 0-2.633 0.06-3.8 0.18-1.167 0.113-1.917 0.187-2.25 0.22z" fill="#484745" fill-rule="nonzero" stroke="none" stroke-width="1" stroke-linecap="butt" stroke-linejoin="miter" stroke-miterlimit="10" stroke-dasharray="" stroke-dashoffset="0" font-family="none" font-weight="none" font-size="none" text-anchor="none" style="mix-blend-mode: normal" data-fill-palette-color="primary" opacity="1"></path><path transform="translate(0,36.85)" d="M16.95 0.6c-3 0-5.633-0.633-7.9-1.9-2.267-1.267-4.007-3.06-5.22-5.38-1.22-2.313-1.83-5.037-1.83-8.17v0c0-3.333 0.75-6.343 2.25-9.03 1.5-2.68 3.577-4.78 6.23-6.3 2.647-1.513 5.637-2.27 8.97-2.27v0c1.233 0 2.493 0.09 3.78 0.27 1.28 0.187 2.363 0.37 3.25 0.55 0.88 0.187 1.437 0.313 1.67 0.38v0l0.2 0.3c-0.067 0.2-0.173 0.683-0.32 1.45-0.153 0.767-0.32 1.767-0.5 3-0.187 1.233-0.33 2.533-0.43 3.9v0l-2.4 0.2c0.033-0.167 0.067-0.477 0.1-0.93 0.033-0.447 0.05-0.953 0.05-1.52v0c0-3.1-2.45-4.65-7.35-4.65v0c-2.2 0-4.133 0.533-5.8 1.6-1.667 1.067-2.95 2.573-3.85 4.52-0.9 1.953-1.35 4.247-1.35 6.88v0c0 2.9 0.477 5.45 1.43 7.65 0.947 2.2 2.287 3.907 4.02 5.12 1.733 1.22 3.733 1.83 6 1.83v0c2.267 0 4.093-0.643 5.48-1.93 1.38-1.28 2.387-3.27 3.02-5.97v0l2.4-0.2c-0.1 0.5-0.317 1.607-0.65 3.32-0.333 1.72-0.567 3.33-0.7 4.83v0l-0.3 0.45c0 0.033-0.507 0.223-1.52 0.57-1.02 0.353-2.287 0.68-3.8 0.98-1.52 0.3-3.163 0.45-4.93 0.45zM34 0.45l0.25-2.05c1.233-0.233 2.067-0.577 2.5-1.03 0.433-0.447 0.65-1.22 0.65-2.32v0l0.05-15.9c0-0.833-0.1-1.393-0.3-1.68-0.2-0.28-0.6-0.42-1.2-0.42v0l-1.35 0.05-0.15-0.2 0.3-1.9c0.333 0 0.96 0.017 1.88 0.05 0.913 0.033 1.837 0.05 2.77 0.05v0c0.767 0 1.683-0.05 2.75-0.15 1.067-0.1 1.767-0.167 2.1-0.2v0l-0.2 2.05c-0.8 0.133-1.367 0.29-1.7 0.47-0.333 0.187-0.56 0.47-0.68 0.85-0.113 0.387-0.203 1.047-0.27 1.98v0l-0.25 6.05 6.5 0.05c1.767 0 3.683-0.117 5.75-0.35v0l0.05-6.7c0-0.833-0.1-1.393-0.3-1.68-0.2-0.28-0.6-0.42-1.2-0.42v0l-1.4 0.05-0.1-0.2 0.3-1.9c0.3 0.033 0.883 0.057 1.75 0.07 0.867 0.02 1.717 0.03 2.55 0.03v0c0.8 0 1.777-0.05 2.93-0.15 1.147-0.1 1.903-0.167 2.27-0.2v0l-0.15 2.05c-1.033 0.133-1.717 0.34-2.05 0.62-0.333 0.287-0.517 0.813-0.55 1.58v0c-0.133 2.633-0.257 5.573-0.37 8.82-0.12 3.253-0.18 5.763-0.18 7.53v0c0 1.067 0.117 1.773 0.35 2.12 0.233 0.353 0.7 0.53 1.4 0.53v0c0.4 0 0.767-0.017 1.1-0.05 0.333-0.033 0.55-0.05 0.65-0.05v0l0.15 0.2-0.4 2c-0.367 0-1.057-0.017-2.07-0.05-1.02-0.033-2.08-0.05-3.18-0.05v0l-5 0.05 0.4-2c0.867 0 1.51-0.107 1.93-0.32 0.413-0.22 0.703-0.607 0.87-1.16 0.167-0.547 0.25-1.37 0.25-2.47v0-5.6l-5.75-0.05c-0.533 0-1.617 0.057-3.25 0.17-1.633 0.12-2.733 0.197-3.3 0.23v0l-0.15 6.5c0 1.067 0.117 1.783 0.35 2.15 0.233 0.367 0.7 0.55 1.4 0.55v0c0.4 0 0.767-0.017 1.1-0.05 0.333-0.033 0.55-0.067 0.65-0.1v0l0.1 0.2-0.35 2c-0.267 0-0.777-0.017-1.53-0.05-0.747-0.033-1.537-0.05-2.37-0.05v0c-1.233 0-2.583 0.05-4.05 0.15-1.467 0.1-2.217 0.2-2.25 0.3zM65.95 0.4l0.25-2.1c1.233-0.133 2.067-0.433 2.5-0.9 0.433-0.467 0.65-1.267 0.65-2.4v0l0.05-15.85c0-0.833-0.1-1.393-0.3-1.68-0.2-0.28-0.6-0.42-1.2-0.42v0l-1.35 0.05-0.1-0.2 0.3-1.9c0.4 0 1.183 0.017 2.35 0.05 1.167 0.033 2.433 0.05 3.8 0.05v0c5.567 0 9.683-0.15 12.35-0.45v0l0.15 0.25c-0.067 0.367-0.217 1.2-0.45 2.5-0.233 1.3-0.4 2.7-0.5 4.2v0l-2.4 0.2c0-0.133 0.017-0.36 0.05-0.68 0.033-0.313 0.05-0.637 0.05-0.97v0c0-0.867-0.123-1.477-0.37-1.83-0.253-0.347-0.773-0.58-1.56-0.7-0.78-0.113-2.137-0.17-4.07-0.17v0c-0.9 0-1.517 0.023-1.85 0.07-0.333 0.053-0.55 0.17-0.65 0.35-0.1 0.187-0.167 0.53-0.2 1.03v0l-0.3 7.1 4.1 0.05c0.6 0 1.483-0.06 2.65-0.18 1.167-0.113 1.933-0.187 2.3-0.22v0l0.2 0.25-0.6 2.6c-0.367 0-1.09-0.017-2.17-0.05-1.087-0.033-2.23-0.05-3.43-0.05v0c-0.933 0-1.983 0.083-3.15 0.25v0c-0.1 2.533-0.15 4.817-0.15 6.85v0c0 0.767 0.06 1.3 0.18 1.6 0.113 0.3 0.38 0.5 0.8 0.6 0.413 0.1 1.103 0.15 2.07 0.15v0c2.167 0 3.717-0.1 4.65-0.3 0.933-0.2 1.593-0.61 1.98-1.23 0.38-0.613 0.687-1.67 0.92-3.17v0l2.2-0.2 0.2 0.25c-0.1 0.367-0.273 1.223-0.52 2.57-0.253 1.353-0.447 2.763-0.58 4.23v0l-0.3 0.25c-0.9-0.033-2.767-0.083-5.6-0.15-2.833-0.067-5.133-0.1-6.9-0.1v0c-1.367 0-2.633 0.06-3.8 0.18-1.167 0.113-1.917 0.187-2.25 0.22zM91.35 0.45l0.25-2.05c1.267-0.233 2.11-0.577 2.53-1.03 0.413-0.447 0.62-1.237 0.62-2.37v0l0.05-15.85c0-0.833-0.1-1.393-0.3-1.68-0.2-0.28-0.6-0.42-1.2-0.42v0l-1.35 0.05-0.1-0.2 0.3-1.9c0.4 0 1.183 0.017 2.35 0.05 1.167 0.033 2.433 0.05 3.8 0.05v0c5.167 0 9-0.15 11.5-0.45v0l0.2 0.25c-0.067 0.367-0.217 1.217-0.45 2.55-0.233 1.333-0.4 2.75-0.5 4.25v0l-2.4 0.15c0-0.133 0.017-0.367 0.05-0.7 0.033-0.333 0.05-0.667 0.05-1v0c0-0.867-0.107-1.477-0.32-1.83-0.22-0.347-0.68-0.58-1.38-0.7-0.7-0.113-1.867-0.17-3.5-0.17v0c-0.9 0-1.517 0.023-1.85 0.07-0.333 0.053-0.55 0.17-0.65 0.35-0.1 0.187-0.167 0.53-0.2 1.03v0l-0.35 7.75 4.15 0.05c0.533 0 1.3-0.06 2.3-0.18 1-0.113 1.667-0.187 2-0.22v0l0.2 0.25-0.55 2.65c-0.333 0-0.983-0.017-1.95-0.05-0.967-0.033-1.983-0.05-3.05-0.05v0c-0.933 0-1.983 0.083-3.15 0.25v0l-0.15 5.9c0 1.033 0.117 1.723 0.35 2.07 0.233 0.353 0.717 0.53 1.45 0.53v0c0.533 0 1.083-0.027 1.65-0.08 0.567-0.047 0.95-0.07 1.15-0.07v0l0.15 0.25-0.35 2.2c-0.433-0.033-1.257-0.067-2.47-0.1-1.22-0.033-2.463-0.05-3.73-0.05v0c-0.967 0-1.983 0.06-3.05 0.18-1.067 0.113-1.767 0.203-2.1 0.27z" fill="#484745" fill-rule="nonzero" stroke="none" stroke-width="1" stroke-linecap="butt" stroke-linejoin="miter" stroke-miterlimit="10" stroke-dasharray="" stroke-dashoffset="0" font-family="none" font-weight="none" font-size="none" text-anchor="none" style="mix-blend-mode: normal" data-fill-palette-color="primary" opacity="1"></path><path transform="translate(0,73.7)" d="M16.95 0.6c-3 0-5.633-0.633-7.9-1.9-2.267-1.267-4.007-3.06-5.22-5.38-1.22-2.313-1.83-5.037-1.83-8.17v0c0-3.333 0.75-6.343 2.25-9.03 1.5-2.68 3.577-4.78 6.23-6.3 2.647-1.513 5.637-2.27 8.97-2.27v0c1.233 0 2.493 0.09 3.78 0.27 1.28 0.187 2.363 0.37 3.25 0.55 0.88 0.187 1.437 0.313 1.67 0.38v0l0.2 0.3c-0.067 0.2-0.173 0.683-0.32 1.45-0.153 0.767-0.32 1.767-0.5 3-0.187 1.233-0.33 2.533-0.43 3.9v0l-2.4 0.2c0.033-0.167 0.067-0.477 0.1-0.93 0.033-0.447 0.05-0.953 0.05-1.52v0c0-3.1-2.45-4.65-7.35-4.65v0c-2.2 0-4.133 0.533-5.8 1.6-1.667 1.067-2.95 2.573-3.85 4.52-0.9 1.953-1.35 4.247-1.35 6.88v0c0 2.9 0.477 5.45 1.43 7.65 0.947 2.2 2.287 3.907 4.02 5.12 1.733 1.22 3.733 1.83 6 1.83v0c2.267 0 4.093-0.643 5.48-1.93 1.38-1.28 2.387-3.27 3.02-5.97v0l2.4-0.2c-0.1 0.5-0.317 1.607-0.65 3.32-0.333 1.72-0.567 3.33-0.7 4.83v0l-0.3 0.45c0 0.033-0.507 0.223-1.52 0.57-1.02 0.353-2.287 0.68-3.8 0.98-1.52 0.3-3.163 0.45-4.93 0.45zM44.25 0.45c-2.267 0-4.273-0.5-6.02-1.5-1.753-1-3.107-2.417-4.06-4.25-0.947-1.833-1.42-3.95-1.42-6.35v0c0-2.6 0.59-4.943 1.77-7.03 1.187-2.08 2.807-3.713 4.86-4.9 2.047-1.18 4.337-1.77 6.87-1.77v0c2.3 0 4.333 0.5 6.1 1.5 1.767 1 3.133 2.407 4.1 4.22 0.967 1.82 1.45 3.93 1.45 6.33v0c0 2.6-0.59 4.94-1.77 7.02-1.187 2.087-2.82 3.73-4.9 4.93-2.087 1.2-4.413 1.8-6.98 1.8zM45.45-1.95c2.433 0 4.4-0.877 5.9-2.63 1.5-1.747 2.25-4.07 2.25-6.97v0c0-2.2-0.357-4.133-1.07-5.8-0.72-1.667-1.737-2.95-3.05-3.85-1.32-0.9-2.847-1.35-4.58-1.35v0c-2.367 0-4.277 0.867-5.73 2.6-1.447 1.733-2.17 4.05-2.17 6.95v0c0 2.2 0.35 4.133 1.05 5.8 0.7 1.667 1.69 2.957 2.97 3.87 1.287 0.92 2.763 1.38 4.43 1.38zM76.5 0.7c-3.367-9.133-5.883-15.817-7.55-20.05v0h-0.25c-0.133 1.6-0.373 4.583-0.72 8.95-0.353 4.367-0.53 6.767-0.53 7.2v0c0 0.433 0.1 0.743 0.3 0.93 0.2 0.18 0.533 0.27 1 0.27v0h1.6l0.1 0.15-0.35 2c-0.3 0-0.873-0.023-1.72-0.07-0.853-0.053-1.697-0.08-2.53-0.08v0c-0.667 0-1.383 0.043-2.15 0.13-0.767 0.08-1.267 0.137-1.5 0.17v0l0.2-2.05c0.867-0.1 1.483-0.36 1.85-0.78 0.367-0.413 0.617-1.137 0.75-2.17v0c0.267-2.267 0.627-5.45 1.08-9.55 0.447-4.1 0.67-6.4 0.67-6.9v0c0-0.667-0.257-1.16-0.77-1.48-0.52-0.313-1.413-0.503-2.68-0.57v0l-0.15-0.25 0.35-1.65c0.367 0.033 1.017 0.073 1.95 0.12 0.933 0.053 1.833 0.08 2.7 0.08v0c0.733 0 1.41-0.017 2.03-0.05 0.613-0.033 1.02-0.067 1.22-0.1v0c1 3.1 1.977 6.01 2.93 8.73 0.947 2.713 1.73 4.877 2.35 6.49 0.613 1.62 1.003 2.63 1.17 3.03v0h0.25c0.367-0.933 1.193-3.117 2.48-6.55 1.28-3.433 2.67-7.3 4.17-11.6v0c0.2-0.033 0.46-0.043 0.78-0.03 0.313 0.02 0.62 0.03 0.92 0.03v0c0.367 0.033 0.9 0.05 1.6 0.05v0c0.533 0 1.31-0.033 2.33-0.1 1.013-0.067 1.687-0.117 2.02-0.15v0l0.1 0.15-0.25 1.75c-1.167 0.133-1.983 0.357-2.45 0.67-0.467 0.32-0.7 0.813-0.7 1.48v0c0 0.667 0.117 2.783 0.35 6.35 0.233 3.567 0.467 6.6 0.7 9.1v0c0.167 1.5 0.383 2.483 0.65 2.95 0.267 0.467 0.717 0.7 1.35 0.7v0l1.15-0.05 0.1 0.15-0.35 2c-0.267 0-0.783-0.017-1.55-0.05-0.767-0.033-1.583-0.05-2.45-0.05v0c-0.867 0-1.85 0.05-2.95 0.15-1.1 0.1-1.683 0.15-1.75 0.15v0l0.2-2.05c0.867-0.1 1.483-0.3 1.85-0.6 0.367-0.3 0.55-0.75 0.55-1.35v0c0-0.6-0.173-2.983-0.52-7.15-0.353-4.167-0.597-7-0.73-8.5v0h-0.25c-1.967 5.033-4.467 11.617-7.5 19.75v0zM98.6 0.3l0.3-2.05c1.167-0.2 1.943-0.51 2.33-0.93 0.38-0.413 0.57-1.17 0.57-2.27v0l0.05-15.9c0-0.833-0.1-1.393-0.3-1.68-0.2-0.28-0.583-0.42-1.15-0.42v0l-1.4 0.05-0.15-0.2 0.3-1.9c0.167 0 0.66 0.017 1.48 0.05 0.813 0.033 1.887 0.05 3.22 0.05v0c0.9 0 1.917-0.027 3.05-0.08 1.133-0.047 1.933-0.07 2.4-0.07v0c3 0 5.26 0.633 6.78 1.9 1.513 1.267 2.27 3 2.27 5.2v0c0 1.467-0.45 2.867-1.35 4.2-0.9 1.333-2.073 2.407-3.52 3.22-1.453 0.82-2.997 1.23-4.63 1.23v0h-3.45l-0.05 3.5c0 1.167 0.043 2.007 0.13 2.52 0.08 0.52 0.237 0.863 0.47 1.03 0.233 0.167 0.633 0.25 1.2 0.25v0c0.433 0 0.867-0.017 1.3-0.05 0.433-0.033 0.717-0.05 0.85-0.05v0l0.1 0.2-0.4 2c-0.3 0-0.85-0.017-1.65-0.05-0.8-0.033-1.617-0.05-2.45-0.05v0c-1.1 0-2.417 0.033-3.95 0.1-1.533 0.067-2.317 0.133-2.35 0.2zM109.65-11.45c3.1-0.5 4.65-2.433 4.65-5.8v0c0-1.867-0.583-3.243-1.75-4.13-1.167-0.88-3.017-1.32-5.55-1.32v0c-0.467 0-0.75 0.023-0.85 0.07-0.1 0.053-0.167 0.23-0.2 0.53v0c-0.267 4.233-0.417 7.6-0.45 10.1v0zM132.6 0.35l-0.15-0.25 0.15-1.8c1.4-0.1 2.343-0.25 2.83-0.45 0.48-0.2 0.72-0.533 0.72-1v0c0-0.533-0.117-1.1-0.35-1.7v0l-1.2-3.85c-0.667-0.033-2.05-0.05-4.15-0.05v0c-0.967 0-2.4 0.1-4.3 0.3v0l-1.4 3.7c-0.233 0.767-0.35 1.233-0.35 1.4v0c0 0.533 0.183 0.917 0.55 1.15 0.367 0.233 0.967 0.35 1.8 0.35v0h2.15l0.15 0.2-0.3 1.9c-0.333-0.033-1.09-0.083-2.27-0.15-1.187-0.067-2.347-0.1-3.48-0.1v0c-1.067 0-2.023 0.017-2.87 0.05-0.853 0.033-1.43 0.05-1.73 0.05v0l0.3-2.05c0.733-0.1 1.317-0.36 1.75-0.78 0.433-0.413 0.867-1.12 1.3-2.12v0l7.85-19.85 3.55-0.65 0.35 0.05c0 0.133 0.76 2.767 2.28 7.9 1.513 5.133 2.87 9.383 4.07 12.75v0c0.333 0.967 0.76 1.64 1.28 2.02 0.513 0.387 1.337 0.63 2.47 0.73v0l0.1 0.2-0.25 1.8c-0.333 0-0.95-0.017-1.85-0.05-0.9-0.033-1.8-0.05-2.7-0.05v0c-1.367 0-2.667 0.05-3.9 0.15-1.233 0.1-2.033 0.167-2.4 0.2zM126.95-10.8h3.4c1.167 0 2.383-0.067 3.65-0.2v0l-3.05-9.7h-0.35zM167-6.8l-0.05-14.45c0-1.1-0.45-1.65-1.35-1.65v0h-1.5l-0.1-0.2 0.35-1.95c0.3 0.033 0.867 0.067 1.7 0.1 0.833 0.033 1.683 0.05 2.55 0.05v0c0.733 0 1.56-0.043 2.48-0.13 0.913-0.08 1.503-0.137 1.77-0.17v0l-0.2 2.05c-0.967 0.133-1.657 0.39-2.07 0.77-0.42 0.387-0.647 0.963-0.68 1.73v0l-0.6 21.5-1.95 0.55c-3.167-4.633-6.367-9.167-9.6-13.6-3.233-4.433-4.85-6.617-4.85-6.55v0h-0.25l-0.15 15.15c0 0.633 0.1 1.067 0.3 1.3 0.2 0.233 0.533 0.35 1 0.35v0l2-0.05 0.15 0.15-0.4 2c-0.3-0.033-0.89-0.067-1.77-0.1-0.887-0.033-1.813-0.05-2.78-0.05v0c-0.767 0-1.583 0.043-2.45 0.13-0.867 0.08-1.433 0.137-1.7 0.17v0l0.25-2.05c0.833-0.1 1.45-0.343 1.85-0.73 0.4-0.38 0.617-0.953 0.65-1.72v0l0.55-16.5c0-0.833-0.24-1.41-0.72-1.73-0.487-0.313-1.413-0.553-2.78-0.72v0l-0.2-0.25 0.35-1.7c0.267 0.033 0.777 0.073 1.53 0.12 0.747 0.053 1.503 0.08 2.27 0.08v0c0.733 0 1.383-0.017 1.95-0.05 0.567-0.033 0.933-0.067 1.1-0.1v0c2.7 3.967 5.557 8.017 8.57 12.15 3.02 4.133 4.53 6.167 4.53 6.1v0zM180.95 0.45l0.3-2.05c1-0.167 1.733-0.383 2.2-0.65 0.467-0.267 0.767-0.65 0.9-1.15 0.133-0.5 0.2-1.25 0.2-2.25v0-1.55c0-0.767-0.083-1.45-0.25-2.05-0.167-0.6-0.483-1.35-0.95-2.25v0l-3.75-7.2c-0.633-1.2-1.117-2.043-1.45-2.53-0.333-0.48-0.767-0.87-1.3-1.17-0.533-0.3-1.3-0.5-2.3-0.6v0l-0.1-0.2 0.3-1.8c0.3 0 0.91 0.017 1.83 0.05 0.913 0.033 1.87 0.05 2.87 0.05v0c0.933 0 2.067-0.043 3.4-0.13 1.333-0.08 2.2-0.137 2.6-0.17v0l0.15 0.3-0.15 1.65c-1.133 0.067-1.907 0.19-2.32 0.37-0.42 0.187-0.63 0.513-0.63 0.98v0c0 0.433 0.593 1.867 1.78 4.3 1.18 2.433 2.02 4.133 2.52 5.1v0h0.25l4.3-7.7c0.433-0.767 0.65-1.4 0.65-1.9v0c0-0.633-0.817-1-2.45-1.1v0l-0.1-0.15 0.25-1.8c0.2 0 0.867 0.04 2 0.12 1.133 0.087 2.067 0.13 2.8 0.13v0c0.867 0 1.667-0.017 2.4-0.05 0.733-0.033 1.233-0.067 1.5-0.1v0l0.15 0.3-0.25 1.7c-0.9 0.2-1.6 0.467-2.1 0.8-0.5 0.333-0.94 0.767-1.32 1.3-0.387 0.533-1.013 1.517-1.88 2.95v0l-4.05 6.9c-0.367 0.7-0.6 1.467-0.7 2.3-0.1 0.833-0.15 2.333-0.15 4.5v0c0 0.867 0.133 1.467 0.4 1.8 0.267 0.333 0.75 0.5 1.45 0.5v0c0.433 0 0.843-0.017 1.23-0.05 0.38-0.033 0.637-0.05 0.77-0.05v0l0.1 0.15-0.4 2.1c-0.4-0.033-1.15-0.067-2.25-0.1-1.1-0.033-2.217-0.05-3.35-0.05v0c-0.867 0-1.85 0.06-2.95 0.18-1.1 0.113-1.817 0.203-2.15 0.27z" fill="#484745" fill-rule="nonzero" stroke="none" stroke-width="1" stroke-linecap="butt" stroke-linejoin="miter" stroke-miterlimit="10" stroke-dasharray="" stroke-dashoffset="0" font-family="none" font-weight="none" font-size="none" text-anchor="none" style="mix-blend-mode: normal" data-fill-palette-color="primary" opacity="1"></path></g></svg></g></svg></g></svg></g></svg></g><g transform="matrix(1,0,0,1,0,0.4999999999999716)"><svg viewBox="0 0 72.88126700261262 200.00000000000003" height="200.00000000000003" width="72.88126700261262"><g><svg version="1.0" xmlns="http://www.w3.org/2000/svg" xmlns:xlink="http://www.w3.org/1999/xlink" x="0" y="0" viewBox="0 0.278 36.44034983216459 99.99922155814964" enable-background="new 0 0 36.439 100.277" xml:space="preserve" id="icon-0" width="72.88126700261262" height="200.00000000000003" class="icon-icon-0" data-fill-palette-color="accent"><path d="M26.47 95.631A4.604 4.604 0 0 0 31.038 100.277 4.6 4.6 0 0 0 35.683 95.71L36.44 5.307C36.477 0.837 33.571 0.336 31.537 0.32 29.495 0.303 25.72 6.033 24.864 11.32 24 16.602 18.891 43.844 26.988 49.207z" fill="#c1a667" data-fill-palette-color="accent"></path><path d="M4.888 95.452L5.506 37.22C2.192 37.193 0.562 33.246 0 30.39L2.006 0.278 4.72 24.584 7.263 0.32 9.974 24.628 13.098 0.369 15.229 24.672 18.349 0.413 19.846 30.556C19.244 33.402 17.782 37.322 14.46 37.295L14.107 95.528A4.61 4.61 0 0 1 9.458 100.096 4.606 4.606 0 0 1 4.888 95.452" fill="#c1a667" data-fill-palette-color="accent"></path></svg></g></svg></g></svg></g><defs></defs></svg><rect width="395.52" height="171.74089822006553" fill="none" stroke="none" visibility="hidden"></rect></g></svg></g></svg>